# xmcd
#
# Track frame offsets:
#	150
#	31264
#	63634
#	75528
#	110478
#	120713
#	133173
#	144419
#
# Disc length: 1994 seconds
#
# Revision: 0
# Processed by: cddbd v1.4PL0 Copyright (c) Steve Scherf et al.
# Submitted via: dBpowerAMP V4.0
#
DISCID=6d07c808
DTITLE=Jerry Clower - The Best Of
DYEAR=1985
DGENRE=Comedy
TTITLE0=Baby Goes To College
TTITLE1=A Coon Huntin' Story
TTITLE2=Good Citizenship
TTITLE3=The Graduate Returns
TTITLE4=Clower Takes A Trip
TTITLE5=A Double Fire Place
TTITLE6=Green Persimmon Wine
TTITLE7=Pistol Pete
EXTD=
EXTT0=
EXTT1=
EXTT2=
EXTT3=
EXTT4=
EXTT5=
EXTT6=
EXTT7=
PLAYORDER=
